<svg xmlns="http://www.w3.org/2000/svg" width="489" height="509.297" viewBox="0 0 489 509.297"><g id="Hire_Android_Developer" data-name="Hire Android Developer" transform="translate(-54.142 -42.483)"><g id="Group_1094" data-name="Group 1094" transform="translate(447.53 327.111)"><g id="Group_1089" data-name="Group 1089" transform="translate(17.297)"><path id="Path_10081" data-name="Path 10081" d="M409.29,349.963s19.207-18.758,8.276-50.177c-6.127-17.609-26.425-30.54-37.986-31.756,0,0,6.272,7.226,9.033,15.232l14.559,9.679-13.383-4.19,2.851,11.456s12.448,7.526,14.292,9.169l-13.418-3.507S394.54,338.3,409.29,349.963Z" transform="translate(-379.58 -268.03)" fill="#8c4515"></path><path id="Path_10082" data-name="Path 10082" d="M404.113,345.855s9.945-39.252-4.769-62.141C399.344,283.714,416.594,303.911,404.113,345.855Z" transform="translate(-374.403 -263.922)" fill="#fff"></path></g><path id="Path_10083" data-name="Path 10083" d="M385.7,337.229l23.5-.3v0h.24v0l23.5.3s.261,28.952-8.656,40.732h0c-2.462,3.132-8.234,5.33-14.964,5.33s-12.521-2.206-14.977-5.347C385.444,366.154,385.7,337.229,385.7,337.229Z" transform="translate(-360.679 -249.982)" fill="#37474f"></path><ellipse id="Ellipse_805" data-name="Ellipse 805" cx="23.622" cy="12.682" rx="23.622" ry="12.682" transform="translate(25.025 74.565)" fill="#455a64"></ellipse><g id="Group_1091" data-name="Group 1091" transform="translate(30.27 78.178)"><path id="Path_10084" data-name="Path 10084" d="M408.236,335.685c-8.127,0-15.01,2.607-17.434,6.216a5.09,5.09,0,0,1-.943-2.852c0-5.01,8.228-9.07,18.376-9.07s18.375,4.06,18.375,9.07a5.1,5.1,0,0,1-.941,2.852C423.246,338.292,416.363,335.685,408.236,335.685Z" transform="translate(-389.86 -329.98)" fill="#263238"></path><g id="Group_1090" data-name="Group 1090" transform="translate(0.942 5.705)"><ellipse id="Ellipse_806" data-name="Ellipse 806" cx="17.434" cy="6.217" rx="17.434" ry="6.217" fill="#e0e0e0"></ellipse></g></g><g id="Group_1092" data-name="Group 1092" transform="translate(42.599 30.889)"><path id="Path_10085" data-name="Path 10085" d="M405.388,353.285s9.1-.355,16.911-12.444c3.221-4.987,4.774-7.606,4.774-7.606l-12.684-.945,14.21-3.552,6.715-10.272-11.8-.876s8.788-3.079,15.064-3.118c0,0,10.883-19.224,14.066-21.964,0,0-25.1.208-42.988,21.36S402.734,353.826,405.388,353.285Z" transform="translate(-399.63 -292.507)" fill="#e5955e"></path><path id="Path_10086" data-name="Path 10086" d="M404.376,352.069s-5.694-34.295,30.641-54.922C435.018,297.147,397.307,315.261,404.376,352.069Z" transform="translate(-398.618 -291.292)" fill="#fff"></path></g><g id="Group_1093" data-name="Group 1093" transform="translate(0 41.194)"><path id="Path_10087" data-name="Path 10087" d="M414.231,351.146s-8.247.538-16.43-9.635c-3.374-4.2-5.021-6.413-5.021-6.413l11.354-2.047-13.155-1.866-7.025-8.636,10.564-1.9s-8.219-1.95-13.885-1.4c0,0-11.629-16.319-14.758-18.491a55.967,55.967,0,0,1,40.8,15.223C424.8,333.383,416.676,351.384,414.231,351.146Z" transform="translate(-365.873 -300.673)" fill="#b5642d"></path><path id="Path_10088" data-name="Path 10088" d="M411,350.356s1.908-31.477-32.817-46.668C378.188,303.688,413.918,316.482,411,350.356Z" transform="translate(-362.647 -299.883)" fill="#fff"></path></g></g><g id="Group_1096" data-name="Group 1096" transform="translate(454.118 137.847)"><path id="Path_10089" data-name="Path 10089" d="M371.094,119.4V182.09l54.294,31.347V150.744L371.094,119.4Z" transform="translate(-371.094 -117.7)" fill="#fafafa"></path><path id="Path_10090" data-name="Path 10090" d="M376.972,123.143,425.388,151.1V207l-48.416-27.953V123.143m-2.939-5.091-2.939,1.7v62.693l54.294,31.347,2.939-1.7V149.4l-54.294-31.348Z" transform="translate(-371.094 -118.052)" fill="#e0e0e0"></path><path id="Path_10091" data-name="Path 10091" d="M374.033,124.488l48.416,27.953v55.905l-48.416-27.953V124.488m-2.939-5.091V182.09l54.294,31.347V150.744L371.094,119.4Z" transform="translate(-371.094 -117.7)" fill="#ebebeb"></path><g id="Group_1095" data-name="Group 1095" transform="translate(7.969 27.678)"><path id="Path_10092" data-name="Path 10092" d="M377.408,159.811l41.073,23.714-12.135-31.572-8.4,9.98L389.353,149.7Z" transform="translate(-377.408 -137.441)" fill="#e0e0e0"></path><path id="Path_10093" data-name="Path 10093" d="M388.7,142.66a8.281,8.281,0,0,0,3.747,6.489c2.068,1.194,3.745.226,3.745-2.163a8.283,8.283,0,0,0-3.745-6.49C390.376,139.3,388.7,140.27,388.7,142.66Z" transform="translate(-374.451 -139.985)" fill="#e0e0e0"></path></g></g><g id="Group_1098" data-name="Group 1098" transform="translate(436.003 60.139)"><path id="Path_10094" data-name="Path 10094" d="M356.739,57.545v49.944l43.253,24.972V82.517L356.739,57.545Z" transform="translate(-356.739 -56.193)" fill="#fafafa"></path><path id="Path_10095" data-name="Path 10095" d="M361.422,60.529l38.57,22.27v44.537l-38.57-22.268V60.529m-2.341-4.055-2.342,1.352V107.77l43.253,24.973,2.342-1.352V81.445L359.081,56.474Z" transform="translate(-356.739 -56.474)" fill="#e0e0e0"></path><path id="Path_10096" data-name="Path 10096" d="M359.081,61.6l38.57,22.27v44.537l-38.57-22.268V61.6m-2.342-4.055v49.944l43.253,24.973V82.518L356.739,57.545Z" transform="translate(-356.739 -56.193)" fill="#ebebeb"></path><g id="Group_1097" data-name="Group 1097" transform="translate(6.348 22.049)"><path id="Path_10097" data-name="Path 10097" d="M361.77,89.741l32.721,18.892L384.824,83.48l-6.693,7.95-6.845-9.747Z" transform="translate(-361.77 -71.919)" fill="#e0e0e0"></path><path id="Path_10098" data-name="Path 10098" d="M370.764,76.077a6.6,6.6,0,0,0,2.984,5.169c1.649.951,2.984.18,2.984-1.723a6.594,6.594,0,0,0-2.984-5.17C372.1,73.4,370.764,74.173,370.764,76.077Z" transform="translate(-359.414 -73.946)" fill="#e0e0e0"></path></g></g><g id="Group_1127" data-name="Group 1127" transform="translate(137.879 135.858)"><g id="Group_1119" data-name="Group 1119"><g id="Group_1099" data-name="Group 1099" transform="translate(121.344 55.881)"><path id="Path_10099" data-name="Path 10099" d="M288.869,287.221,271.313,394.346a3.341,3.341,0,0,1-3.3,2.8h0a3.342,3.342,0,0,1-3.321-3.711l12.317-110.517Z" transform="translate(-204.075 -128.757)" fill="#263238"></path><path id="Path_10100" data-name="Path 10100" d="M240.849,258.67,223.293,365.8a3.342,3.342,0,0,1-3.3,2.8h0a3.341,3.341,0,0,1-3.32-3.711L228.99,254.368Z" transform="translate(-216.653 -136.236)" fill="#263238"></path><path id="Path_10101" data-name="Path 10101" d="M305.2,266.476l17.324,92.316a2.815,2.815,0,0,0,5.551-.929l-12.8-85.559Z" transform="translate(-193.458 -133.065)" fill="#263238"></path><path id="Path_10102" data-name="Path 10102" d="M256.64,239.188l17.226,91.747a2.815,2.815,0,0,0,5.553-.929L266.718,245Z" transform="translate(-206.179 -140.213)" fill="#263238"></path><path id="Path_10103" data-name="Path 10103" d="M271.269,252.468a24.6,24.6,0,0,0,14.5-20.033c2.794-28.109,12.694-86.036,46.243-66.752,41.407,23.8,26.582,92.913,20.561,115.076A29.864,29.864,0,0,1,344.963,294c-7.48,7.536-22.967,20.512-49.307,31.561a15.45,15.45,0,0,1-10.2.608c-13.085-3.729-47.275-15.176-64.32-36.972a5.957,5.957,0,0,1,.983-8.333C229.023,275.37,244.623,264.347,271.269,252.468Z" transform="translate(-215.811 -160.476)" fill="#ba68c8"></path><path id="Path_10104" data-name="Path 10104" d="M271.269,252.468a24.6,24.6,0,0,0,14.5-20.033c2.794-28.109,12.694-86.036,46.243-66.752,41.407,23.8,26.582,92.913,20.561,115.076A29.864,29.864,0,0,1,344.963,294c-7.48,7.536-22.967,20.512-49.307,31.561a15.45,15.45,0,0,1-10.2.608c-13.085-3.729-47.275-15.176-64.32-36.972a5.957,5.957,0,0,1,.983-8.333C229.023,275.37,244.623,264.347,271.269,252.468Z" transform="translate(-215.811 -160.476)" opacity="0.5"></path><path id="Path_10105" data-name="Path 10105" d="M219.9,285.5a5.907,5.907,0,0,0,1.233,3.969c.91,1.164,1.878,2.29,2.878,3.4h0q.822.907,1.681,1.787l.034.035q.852.869,1.735,1.715l.052.049q.884.844,1.8,1.662l.045.042q.922.823,1.874,1.623l.024.02c9.667,8.118,21.4,14.294,31.887,18.753l.04.018q.98.416,1.942.811l.2.083q.9.371,1.788.722l.312.124q.842.335,1.667.651l.382.146q.786.3,1.555.587l.451.168q.725.269,1.432.524l.52.187c.447.16.89.317,1.324.469l.55.191c.414.144.824.285,1.227.421l.586.2c.376.126.751.252,1.116.372l.632.206c.334.108.67.218.994.322l.674.213c.29.092.584.184.864.271l.727.223c.244.074.492.151.727.222.307.092.6.178.888.264l.453.135c.437.127.857.249,1.256.363a15.45,15.45,0,0,0,10.2-.608c26.339-11.05,41.827-24.025,49.307-31.561a29.864,29.864,0,0,0,7.61-13.237c6.021-22.162,20.846-91.275-20.561-115.076-.734-.423-1.454-.794-2.165-1.143-.155-.076-.31-.153-.464-.225-.7-.331-1.392-.633-2.071-.895-.067-.026-.133-.047-.2-.072q-.977-.367-1.923-.64c-.1-.029-.2-.061-.293-.087q-1.018-.282-2.005-.462l-.168-.028a18.874,18.874,0,0,0-3.969-.279l-.074,0a16.9,16.9,0,0,0-3.763.584h0c6.615-2.923,14.692-2.79,22.7,1.812,41.408,23.8,26.583,92.913,20.562,115.074l-1.018,3.807a36.019,36.019,0,0,1-12.924,19.314l-10.745,8.213v-.005a169.031,169.031,0,0,1-37.792,21.526,15.5,15.5,0,0,1-10.232.627c-13.079-3.725-47.28-15.174-64.33-36.975a5.832,5.832,0,0,1-1.225-3.246h-.027v-7.381Z" transform="translate(-215.808 -160.757)" fill="#ba68c8"></path><path id="Path_10106" data-name="Path 10106" d="M219.9,285.5a5.907,5.907,0,0,0,1.233,3.969c.91,1.164,1.878,2.29,2.878,3.4h0q.822.907,1.681,1.787l.034.035q.852.869,1.735,1.715l.052.049q.884.844,1.8,1.662l.045.042q.922.823,1.874,1.623l.024.02c9.667,8.118,21.4,14.294,31.887,18.753l.04.018q.98.416,1.942.811l.2.083q.9.371,1.788.722l.312.124q.842.335,1.667.651l.382.146q.786.3,1.555.587l.451.168q.725.269,1.432.524l.52.187c.447.16.89.317,1.324.469l.55.191c.414.144.824.285,1.227.421l.586.2c.376.126.751.252,1.116.372l.632.206c.334.108.67.218.994.322l.674.213c.29.092.584.184.864.271l.727.223c.244.074.492.151.727.222.307.092.6.178.888.264l.453.135c.437.127.857.249,1.256.363a15.45,15.45,0,0,0,10.2-.608c26.339-11.05,41.827-24.025,49.307-31.561a29.864,29.864,0,0,0,7.61-13.237c6.021-22.162,20.846-91.275-20.561-115.076-.734-.423-1.454-.794-2.165-1.143-.155-.076-.31-.153-.464-.225-.7-.331-1.392-.633-2.071-.895-.067-.026-.133-.047-.2-.072q-.977-.367-1.923-.64c-.1-.029-.2-.061-.293-.087q-1.018-.282-2.005-.462l-.168-.028a18.874,18.874,0,0,0-3.969-.279l-.074,0a16.9,16.9,0,0,0-3.763.584h0c6.615-2.923,14.692-2.79,22.7,1.812,41.408,23.8,26.583,92.913,20.562,115.074l-1.018,3.807a36.019,36.019,0,0,1-12.924,19.314l-10.745,8.213v-.005a169.031,169.031,0,0,1-37.792,21.526,15.5,15.5,0,0,1-10.232.627c-13.079-3.725-47.28-15.174-64.33-36.975a5.832,5.832,0,0,1-1.225-3.246h-.027v-7.381Z" transform="translate(-215.808 -160.757)" opacity="0.6"></path></g><g id="Group_1104" data-name="Group 1104" transform="translate(66.442 129.46)"><g id="Group_1102" data-name="Group 1102"><path id="Path_10107" data-name="Path 10107" d="M201.787,349.314c2.833-18.024,6.449-46.848,8.524-63.894q.2-1.681.564-3.321a35.342,35.342,0,0,1,16.678-22.585l42.472-25.286,28.837-15.165s7.675,22.237-1.242,35.832c-7.42,11.313-40.179,25.347-49.914,30.072s-9.947,6.013-9.743,12.333.209,14.369-11.756,39.589c-3.439,7.246-5.835,12.667-7.509,16.82A26.558,26.558,0,0,1,201.787,349.314Z" transform="translate(-165.646 -219.063)" fill="#ba68c8"></path><path id="Path_10108" data-name="Path 10108" d="M201.787,349.314c2.833-18.024,6.449-46.848,8.524-63.894a35.739,35.739,0,0,1,.96-4.951,35.211,35.211,0,0,1,16.211-20.913l42.543-25.329,28.837-15.165s7.675,22.237-1.242,35.832c-7.42,11.313-40.179,25.347-49.914,30.072s-9.947,6.013-9.743,12.333.209,14.369-11.756,39.589c-3.439,7.246-5.835,12.667-7.509,16.82A26.558,26.558,0,0,1,201.787,349.314Z" transform="translate(-165.646 -219.063)" opacity="0.7"></path><path id="Path_10109" data-name="Path 10109" d="M220.14,341.369a4.253,4.253,0,0,1-.514,2.149,29.943,29.943,0,0,1-6.39,7.6c-5.72,5.161-24.689,25.356-31.359,12.819,0,0,19.6-18.769,22.194-26.488.738-2.193,1.769-7.781,2.931-15.175a26.558,26.558,0,0,0,16.911,4.4C220.239,335.8,220.076,338.774,220.14,341.369Z" transform="translate(-170.861 -192.027)" fill="#ffa8a7"></path><g id="Group_1101" data-name="Group 1101" transform="translate(0 144.808)"><path id="Path_10110" data-name="Path 10110" d="M202.035,337.119l.544-1.628a2.453,2.453,0,0,1,3.051-1.569l7.939,2.448a2.44,2.44,0,0,1,1.723,2.332v.794a1.418,1.418,0,0,0,1.418,1.418h0a7.24,7.24,0,0,0,4.607-1.654l1.109-.914v-2.775h0a4.876,4.876,0,0,1,2.213,4.34c-.1,1.882-.191,4.182-.12,5.1.127,1.657,1.687,8.6-.17,10.657s-6.016,2.3-11.166,1.74-10.782,4.513-15.555,6.387-24.531,5.922-24.48-6.71c.013-3.217,3.2-4.53,6.319-5.671s14.4-5.113,17.294-7.5a26.838,26.838,0,0,0,3.219-3.176A10.754,10.754,0,0,0,202.035,337.119Z" transform="translate(-173.148 -333.813)" fill="#455a64"></path><g id="Group_1100" data-name="Group 1100" transform="translate(0 18.938)"><path id="Path_10111" data-name="Path 10111" d="M197.63,359.861c4.773-1.874,10.406-6.942,15.555-6.387s9.307.312,11.166-1.74a4.873,4.873,0,0,0,.877-2.914c.1,1.943-.056,3.811-.877,4.72-1.859,2.053-6.016,2.3-11.166,1.742s-10.782,4.511-15.555,6.387-24.531,5.922-24.482-6.711a4.375,4.375,0,0,1,.072-.545C174.469,365.5,193.025,361.67,197.63,359.861Z" transform="translate(-173.148 -348.82)" fill="#263238"></path></g></g></g><g id="Group_1103" data-name="Group 1103" transform="translate(71.175 21.416)"><path id="Path_10112" data-name="Path 10112" d="M232.364,366.754c2.833-18.024,6.449-46.848,8.524-63.894a35.906,35.906,0,0,1,12.391-23.018L304.256,236.5l27.239-.469s5.619,22.706-3.3,36.3c-7.42,11.313-40.18,25.347-49.914,30.072s-9.947,6.013-9.744,12.333.21,14.368-11.758,39.588c-3.438,7.246-5.834,12.667-7.507,16.821A26.558,26.558,0,0,1,232.364,366.754Z" transform="translate(-228.812 -236.034)" fill="#ba68c8"></path><path id="Path_10113" data-name="Path 10113" d="M232.364,366.754c2.833-18.024,6.449-46.848,8.524-63.894a35.906,35.906,0,0,1,12.391-23.018L304.256,236.5l27.239-.469s5.619,22.706-3.3,36.3c-7.42,11.313-40.18,25.347-49.914,30.072s-9.947,6.013-9.744,12.333.21,14.368-11.758,39.588c-3.438,7.246-5.834,12.667-7.507,16.821A26.558,26.558,0,0,1,232.364,366.754Z" transform="translate(-228.812 -236.034)" opacity="0.7"></path><path id="Path_10114" data-name="Path 10114" d="M246.253,357.09c.019.752.522,2.992-.529,3.771-1.331.988-2.6,4.188-6.389,7.6-5.722,5.161-11.764-5.95-9.166-13.669.737-2.193,1.769-7.781,2.931-15.175a26.558,26.558,0,0,0,16.911,4.4C246.338,353.142,246.189,354.5,246.253,357.09Z" transform="translate(-229.549 -208.9)" fill="#ffa8a7"></path></g></g><g id="Group_1105" data-name="Group 1105" transform="translate(146.688 56.61)"><path id="Path_10115" data-name="Path 10115" d="M278.061,161.563h0a16.682,16.682,0,0,0-18.441,11.182,72.837,72.837,0,0,0-3.445,16.674c-1.47,17.48-1.879,26.219-1.879,26.219L236.737,223.6s9.482.456,8.84,13.845l21.87-5.513Z" transform="translate(-236.737 -161.329)" fill="#0d1e4c"></path><path id="Path_10116" data-name="Path 10116" d="M250.137,205.08c2.587-18.935,3.614-28.833,5.835-33.535,3.48-7.37,10.526-11.233,18.578-9.976l-6.611,51.993-.852-.083a27.466,27.466,0,0,1-15.742-6.958Z" transform="translate(-233.227 -161.335)" fill="#0d1e4c"></path><path id="Path_10117" data-name="Path 10117" d="M250.137,205.08c2.587-18.935,3.614-28.833,5.835-33.535,3.48-7.37,10.526-11.233,18.578-9.976l-6.611,51.993-.852-.083a27.466,27.466,0,0,1-15.742-6.958Z" transform="translate(-233.227 -161.335)" fill="#0d1e4c" opacity="0.2"></path><path id="Path_10118" data-name="Path 10118" d="M250.651,204.8a12.162,12.162,0,0,1,5.187,3.186s-2.118-4.026-5.079-5.269Z" transform="translate(-233.092 -150.494)" fill="#0d1e4c"></path></g><path id="Path_10119" data-name="Path 10119" d="M314.356,176.889l-19.64-9.511-16.181-5.584s-12.963-4.135-16.28,13.141c-2.727,14.2-3.083,68.156-3.083,68.156l.289,5.9s7.486,20.967,34.228,22.7,31.946-9.54,31.946-9.54S328.342,190.77,314.356,176.889Z" transform="translate(-84.172 -104.718)" fill="#182b69"></path><path id="Path_10120" data-name="Path 10120" d="M254.312,127.96s-6.071,15.556,2.313,22.407,5.478-20.673,5.478-20.673Z" transform="translate(-86.002 -113.467)" fill="#263238"></path><g id="Group_1111" data-name="Group 1111" transform="translate(0 103.497)"><g id="Group_1106" data-name="Group 1106" transform="translate(181.66 192.195)"><path id="Path_10121" data-name="Path 10121" d="M265.884,446.408a7.614,7.614,0,0,0,6.891,0c1.9-1.1,1.9-2.88,0-3.979a7.621,7.621,0,0,0-6.891,0C263.981,443.528,263.981,445.31,265.884,446.408Z" transform="translate(-264.448 -327.002)" fill="#455a64"></path><rect id="Rectangle_1047" data-name="Rectangle 1047" width="9.747" height="117.308" transform="translate(9.747 117.308) rotate(-180)" fill="#37474f"></rect></g><g id="Group_1107" data-name="Group 1107" transform="translate(292.477 127.124)"><ellipse id="Ellipse_807" data-name="Ellipse 807" cx="4.873" cy="2.814" rx="4.873" ry="2.814" transform="translate(0.009 114.603)" fill="#455a64"></ellipse><rect id="Rectangle_1048" data-name="Rectangle 1048" width="9.747" height="117.308" transform="translate(9.747 117.308) rotate(-180)" fill="#263238"></rect></g><g id="Group_1108" data-name="Group 1108" transform="translate(0 86.946)"><path id="Path_10122" data-name="Path 10122" d="M121.932,363.006a7.614,7.614,0,0,0,6.891,0c1.9-1.1,1.9-2.88,0-3.979a7.614,7.614,0,0,0-6.891,0C120.028,360.126,120.028,361.907,121.932,363.006Z" transform="translate(-120.496 -243.599)" fill="#455a64"></path><rect id="Rectangle_1049" data-name="Rectangle 1049" width="9.747" height="117.308" transform="translate(9.747 117.308) rotate(-180)" fill="#37474f"></rect></g><g id="Group_1109" data-name="Group 1109" transform="translate(119.279 17.801)"><path id="Path_10123" data-name="Path 10123" d="M216.3,292.559a6.833,6.833,0,0,0,6.182,0c1.707-.986,1.707-2.583,0-3.569a6.833,6.833,0,0,0-6.182,0C214.6,289.974,214.6,291.572,216.3,292.559Z" transform="translate(-215.016 -192.779)" fill="#455a64"></path><rect id="Rectangle_1050" data-name="Rectangle 1050" width="8.742" height="97.897" transform="translate(8.742 97.897) rotate(-180)" fill="#455a64"></rect></g><g id="Group_1110" data-name="Group 1110"><path id="Path_10124" data-name="Path 10124" d="M384.012,283.827v23.339l-115.707,66.8V350.63Z" transform="translate(-81.78 -176.136)" fill="#263238"></path><path id="Path_10125" data-name="Path 10125" d="M120.5,251.427,307.023,359.117v23.339L120.5,274.765Z" transform="translate(-120.497 -184.623)" fill="#37474f"></path><path id="Path_10126" data-name="Path 10126" d="M236.2,198.49,422.73,306.18l-115.707,66.8L120.5,265.293Z" transform="translate(-120.497 -198.49)" fill="#455a64"></path></g></g><path id="Path_10127" data-name="Path 10127" d="M309.789,264.646l-42.427,24.494-70.536-40.79,42.421-24.994Z" transform="translate(-100.504 -88.479)" fill="#ebebeb"></path><path id="Path_10128" data-name="Path 10128" d="M259.643,253.656l-15.917-9.189,9.976-5.76,15.917,9.189Z" transform="translate(-88.218 -84.458)" fill="#e0e0e0"></path><path id="Path_10129" data-name="Path 10129" d="M255.54,278.522,276.981,265.9l-41.9-25.362Z" transform="translate(-90.484 -83.977)" fill="#e0e0e0"></path><g id="Group_1112" data-name="Group 1112" transform="translate(108.724 115.853)"><path id="Path_10130" data-name="Path 10130" d="M250.984,208.281l-16.973,7.96a150.743,150.743,0,0,0-14.988,4.631s-11.807,4.827-12.347,7.993,8.861,10.795,17.121,7.083c1.666-.75,4.672-2.26,6.888-2.5s8.8-1.272,13.566-5.816l19.807-5.153S265.046,210.251,250.984,208.281Z" transform="translate(-206.653 -208.281)" fill="#ffa8a7"></path><path id="Path_10131" data-name="Path 10131" d="M235.3,228.29c-1.966,2.1-7.57,7.415-8.793,8.95s-4.111-2.412.953-8.292a47.629,47.629,0,0,0,12.228-6.658A48.975,48.975,0,0,1,235.3,228.29Z" transform="translate(-201.959 -204.612)" fill="#ffa8a7"></path></g><g id="Group_1116" data-name="Group 1116" transform="translate(161.469)"><g id="Group_1114" data-name="Group 1114" transform="translate(28.929 38.279)"><g id="Group_1113" data-name="Group 1113"><rect id="Rectangle_1051" data-name="Rectangle 1051" width="20.146" height="24.381" fill="#ffa8a7"></rect></g></g><path id="Path_10132" data-name="Path 10132" d="M271.374,171.19a32.419,32.419,0,0,0,18.506-17.6v-6.779H271.374Z" transform="translate(-242.445 -108.53)" fill="#f28f8f"></path><path id="Path_10133" data-name="Path 10133" d="M269.063,121.478s-18.325,2.2-14.122,33.508c1.943,14.477,5.811,21.8,16.973,20.557,12.648-1.4,30.12-11.226,27.412-36.031S269.063,121.478,269.063,121.478Z" transform="translate(-246.913 -115.386)" fill="#ffa8a7"></path><path id="Path_10134" data-name="Path 10134" d="M266.389,143.423l.663,10.81-6.449-1.555Z" transform="translate(-245.266 -109.417)" fill="#f28f8f"></path><g id="Group_1115" data-name="Group 1115" transform="translate(10.782 24.389)"><path id="Path_10135" data-name="Path 10135" d="M273.706,143.079a2.207,2.207,0,1,1-2.338-2.067A2.208,2.208,0,0,1,273.706,143.079Z" transform="translate(-253.77 -134.439)" fill="#263238"></path><path id="Path_10136" data-name="Path 10136" d="M262.152,142.567a2.206,2.206,0,1,1-2.337-2.067A2.206,2.206,0,0,1,262.152,142.567Z" transform="translate(-256.797 -134.573)" fill="#263238"></path><path id="Path_10137" data-name="Path 10137" d="M257.182,139.511l4.149-2.823s-1.759-1.615-3.34-.483S257.182,139.511,257.182,139.511Z" transform="translate(-256.993 -135.802)" fill="#263238"></path><path id="Path_10138" data-name="Path 10138" d="M271.577,138.583l4.484,2.254s.558-2.323-1.2-3.154S271.577,138.583,271.577,138.583Z" transform="translate(-253.173 -135.369)" fill="#263238"></path></g><path id="Path_10139" data-name="Path 10139" d="M265.463,155.953s4.2.125,6.974-2.333c0,0,.713,3.7-2.371,4.61S265.463,155.953,265.463,155.953Z" transform="translate(-243.993 -106.746)" fill="#f28f8f"></path><path id="Path_10140" data-name="Path 10140" d="M297.744,150.231s-2.822,5.858-4.556,5.656,0-22.464-3.614-22.609-20.642,8.319-35.7-2.6c-5.782-4.191-6.938-14.888-3.469-13.876s8.152,4.047,14.483,3.614,28.448-10.7,33.941,3.758c0,0,12.248-1,7.647,23.309-1.142,6.035-4.756,21.009-8.948,22.484Z" transform="translate(-248.45 -116.476)" fill="#263238"></path><path id="Path_10141" data-name="Path 10141" d="M286.726,149.366a12.225,12.225,0,0,1,.993-5.344c.84-1.875,2.326-3.767,4.9-3.838,5.659-.155,6.422,5.293,6.345,7.232-.2,5.092-4.323,10.6-12,10.8Z" transform="translate(-238.425 -110.266)" fill="#ffa8a7"></path></g><path id="Path_10142" data-name="Path 10142" d="M293.326,233.92l-14.433,11.434a49.194,49.194,0,0,0-7.324,1.268c-2.757.828-10.006,3.493-11.923,3.908s.56,3.716,5.575,2.516c0,0-10.522,7.211-10.381,10.419s10.941,8.681,18.23,3.309c1.47-1.084,4.089-3.2,6.206-3.894s8.333-3.1,12.03-8.55l12.622-6.58S307.486,232.876,293.326,233.92Z" transform="translate(-85.307 -85.725)" fill="#ffa8a7"></path><g id="Group_1117" data-name="Group 1117" transform="translate(208.019 69.068)"><path id="Path_10143" data-name="Path 10143" d="M301.094,171.207s-8.426,6.531-3.25,26.806,7.943,37.76,7.943,37.76l-20.45,14.56a18.035,18.035,0,0,1,10.6,13.831s32.234-12.672,32.884-20.8-6.722-43.354-7.844-49.828S314.13,174.272,301.094,171.207Z" transform="translate(-285.337 -171.207)" fill="#ffa8a7"></path><path id="Path_10144" data-name="Path 10144" d="M301.578,222.762a19.08,19.08,0,0,1,7.711.073,16.223,16.223,0,0,0-7.883-1.956Z" transform="translate(-281.128 -158.196)" fill="#f28f8f"></path></g><path id="Path_10145" data-name="Path 10145" d="M189.038,206.642l7.375,48.278a.112.112,0,0,0,.056.081l73.264,42.492a.112.112,0,0,0,.167-.114l-7.154-46.816a6.937,6.937,0,0,0-3.234-4.871L192.3,204.476A2.158,2.158,0,0,0,189.038,206.642Z" transform="translate(-102.55 -93.509)" fill="#fafafa"></path><path id="Path_10146" data-name="Path 10146" d="M253.044,283.892l39.137-22.667a5.951,5.951,0,0,0,2.967-5.149h0L252.72,280.57Z" transform="translate(-85.862 -79.908)" fill="#e0e0e0"></path><path id="Path_10148" data-name="Path 10148" d="M287.067,129.621s3.325-4.915,1.3-6.505S284.755,126.585,287.067,129.621Z" transform="translate(-77.164 -114.816)" fill="#263238"></path><path id="Path_10149" data-name="Path 10149" d="M286.386,129.94s5.888-.733,5.753-3.3S287.148,126.2,286.386,129.94Z" transform="translate(-77.044 -114.109)" fill="#263238"></path><path id="Path_10150" data-name="Path 10150" d="M291.7,166.129s-4.321,11.388-14.3,9.942-5.85-9.942-5.85-9.942Z" transform="translate(-81.151 -103.469)" fill="#ffa8a7"></path><path id="Path_10151" data-name="Path 10151" d="M299,171.207s-6.567,3.142-5.555,16.347,6.215,39.8,6.215,39.8,23.5,9.507,25.731-3.9c.578-3.469-5.349-35.559-10.409-42.353A23.923,23.923,0,0,0,299,171.207Z" transform="translate(-75.223 -102.139)" fill="#ba68c8"></path><path id="Path_10152" data-name="Path 10152" d="M299,171.207s-6.567,3.142-5.555,16.347,6.215,39.8,6.215,39.8,23.5,9.507,25.731-3.9c.578-3.469-5.349-35.559-10.409-42.353A23.923,23.923,0,0,0,299,171.207Z" transform="translate(-75.223 -102.139)" fill="#0d1e4c"></path><g id="Group_1118" data-name="Group 1118" transform="translate(115.046 295.358)"><path id="Path_10153" data-name="Path 10153" d="M250.318,354.88a6.356,6.356,0,0,1-3.838,2.679c-1.42.225,1.46-3.472-1.977-4.953s-11.3-3.528-12-.569l-.871,3.685a21.885,21.885,0,0,1-4.848,9.4c-2.357,2.689-5.412,5.9-7.78,7.425-4.487,2.9-11.867,9.9-2.394,15.861s21.12.931,23.4-5.852,4.691-8.745,5.907-9.87,4.053-2.9,5.121-7.471a69.392,69.392,0,0,0,1.281-9.081,3.38,3.38,0,0,0-1.558-3.14h0Z" transform="translate(-211.571 -350.526)" fill="#455a64"></path><path id="Path_10154" data-name="Path 10154" d="M216.7,385.086c9.475,5.963,21.12.931,23.4-5.852s4.691-8.745,5.907-9.87c1.089-1.01,3.47-2.552,4.725-6.148-.016.187-.038.377-.049.56-.362,5.873-3.96,7.249-5.175,8.374s-3.205,2.986-5.486,9.769-14.293,11.012-23.768,5.05c-4.6-2.894-5.221-6.032-4.135-8.827C211.948,380.42,213.116,382.828,216.7,385.086Z" transform="translate(-211.663 -347.201)" fill="#263238"></path></g></g><g id="Group_1124" data-name="Group 1124" transform="translate(159.853 201.663)"><g id="Group_1122" data-name="Group 1122" transform="translate(5.318 14.107)"><path id="Path_10155" data-name="Path 10155" d="M251.835,313.81l30.191,17.43,38.1-22-30.251-17.467a2.59,2.59,0,0,0-2.588,0l-35.453,20.469A.9.9,0,0,0,251.835,313.81Z" transform="translate(-251.383 -286.417)" fill="#ba68c8"></path><path id="Path_10156" data-name="Path 10156" d="M251.835,313.81l30.191,17.43,38.1-22-30.251-17.467a2.59,2.59,0,0,0-2.588,0l-35.453,20.469A.9.9,0,0,0,251.835,313.81Z" transform="translate(-251.383 -286.417)" opacity="0.7"></path><g id="Group_1120" data-name="Group 1120" transform="translate(2.122 5.921)"><path id="Path_10157" data-name="Path 10157" d="M253.485,312.981l28.1,16.222,35.463-20.475-28.157-16.256a2.409,2.409,0,0,0-2.409,0l-33,19.052A.842.842,0,0,0,253.485,312.981Z" transform="translate(-253.065 -292.149)" fill="#fff"></path><path id="Path_10158" data-name="Path 10158" d="M281.585,325.587v-3.164l-28.52-16.466v2.7Z" transform="translate(-253.065 -288.532)" fill="#fff"></path></g><path id="Path_10159" data-name="Path 10159" d="M275.665,326.419v-3.164l35.464-20.475v3.164Z" transform="translate(-245.023 -283.444)" fill="#e0e0e0"></path><path id="Path_10160" data-name="Path 10160" d="M251.835,309.839l30.191,17.43,38.1-22L289.876,287.8a2.591,2.591,0,0,0-2.588,0l-35.453,20.469A.9.9,0,0,0,251.835,309.839Z" transform="translate(-251.383 -287.458)" fill="#ba68c8"></path><path id="Path_10161" data-name="Path 10161" d="M251.835,309.839l30.191,17.43,38.1-22L289.876,287.8a2.591,2.591,0,0,0-2.588,0l-35.453,20.469A.9.9,0,0,0,251.835,309.839Z" transform="translate(-251.383 -287.458)" opacity="0.5"></path><g id="Group_1121" data-name="Group 1121" transform="translate(31.869 18.257)"><path id="Path_10162" data-name="Path 10162" d="M279.348,322.837a.679.679,0,0,0,.928-.635V319.34a3.754,3.754,0,0,0-1.834-3.215l-.107-.063a.338.338,0,0,0-.51.29.594.594,0,0,1-1.188,0,1.525,1.525,0,0,1,2.3-1.311l.107.063a4.943,4.943,0,0,1,2.415,4.236V322.2a1.869,1.869,0,0,1-2.909,1.555.58.58,0,0,1-.232-.327Z" transform="translate(-276.637 -298.545)" fill="#fff"></path><path id="Path_10163" data-name="Path 10163" d="M283.818,320.257a.678.678,0,0,0,.928-.635V316.76a3.754,3.754,0,0,0-1.834-3.215l-.107-.063a.337.337,0,0,0-.51.29.594.594,0,0,1-1.187,0,1.526,1.526,0,0,1,2.3-1.312l.107.064a4.943,4.943,0,0,1,2.415,4.236v2.862a1.87,1.87,0,0,1-2.909,1.555.594.594,0,0,1-.232-.327Z" transform="translate(-275.466 -299.221)" fill="#fff"></path><path id="Path_10164" data-name="Path 10164" d="M288.288,317.677a.678.678,0,0,0,.928-.635V314.18a3.753,3.753,0,0,0-1.834-3.215l-.107-.063a.337.337,0,0,0-.51.29.594.594,0,0,1-1.187,0,1.526,1.526,0,0,1,2.3-1.312l.107.064a4.943,4.943,0,0,1,2.415,4.236v2.862a1.869,1.869,0,0,1-2.909,1.555.594.594,0,0,1-.232-.327Z" transform="translate(-274.295 -299.897)" fill="#fff"></path><path id="Path_10165" data-name="Path 10165" d="M292.758,315.1a.678.678,0,0,0,.928-.635V311.6a3.753,3.753,0,0,0-1.834-3.215l-.107-.064a.338.338,0,0,0-.51.292.594.594,0,0,1-1.188,0,1.525,1.525,0,0,1,2.3-1.312l.107.064a4.943,4.943,0,0,1,2.415,4.236v2.862a1.87,1.87,0,0,1-2.909,1.555.594.594,0,0,1-.232-.327Z" transform="translate(-273.124 -300.573)" fill="#fff"></path><path id="Path_10166" data-name="Path 10166" d="M297.227,312.517a.68.68,0,0,0,.928-.635V309.02a3.753,3.753,0,0,0-1.834-3.215l-.107-.064a.338.338,0,0,0-.51.291.593.593,0,1,1-1.186,0,1.524,1.524,0,0,1,2.3-1.312l.107.064a4.943,4.943,0,0,1,2.415,4.236v2.862a1.869,1.869,0,0,1-2.909,1.555.594.594,0,0,1-.232-.327Z" transform="translate(-271.953 -301.249)" fill="#fff"></path><path id="Path_10167" data-name="Path 10167" d="M301.7,309.937a.68.68,0,0,0,.928-.635V306.44a3.753,3.753,0,0,0-1.832-3.215l-.109-.064a.338.338,0,0,0-.51.292.593.593,0,0,1-1.186,0,1.524,1.524,0,0,1,2.3-1.312l.107.063a4.946,4.946,0,0,1,2.415,4.238V309.3a1.87,1.87,0,0,1-2.909,1.555.586.586,0,0,1-.231-.327Z" transform="translate(-270.782 -301.925)" fill="#fff"></path></g></g><path id="Path_10168" data-name="Path 10168" d="M248.655,304.041l32.639,18.845,42.475-24.523L291.13,279.518Z" transform="translate(-246.78 -275.43)" fill="#e6e6e6"></path><g id="Group_1123" data-name="Group 1123"><path id="Path_10169" data-name="Path 10169" d="M247.169,304.273l34.1,16.044,40.272-27.994-34.1-16.044Z" transform="translate(-247.169 -276.279)" fill="#fafafa"></path></g></g><g id="Group_1126" data-name="Group 1126" transform="translate(234.213 165.811)"><path id="Path_10170" data-name="Path 10170" d="M307.5,258.75h27.7l-2.485,29.319H332.7c-.146,1.562-1.239,3.1-3.305,4.292a17.791,17.791,0,0,1-16.1,0c-2.066-1.193-3.16-2.73-3.305-4.292h-.008Z" transform="translate(-305.726 -245.019)" fill="#ba68c8"></path><g id="Group_1125" data-name="Group 1125"><path id="Path_10171" data-name="Path 10171" d="M306.1,259.349v-2.323h.546a9.464,9.464,0,0,1,4.027-4.034c6.1-3.522,15.99-3.522,22.09,0a9.472,9.472,0,0,1,4.027,4.034h.548v2.342c0,2.308-1.524,4.615-4.575,6.377-6.1,3.522-15.99,3.522-22.09,0C307.611,263.979,306.087,261.663,306.1,259.349Z" transform="translate(-306.094 -247.219)" fill="#e0e0e0"></path><path id="Path_10172" data-name="Path 10172" d="M310.669,264c6.1,3.521,15.99,3.521,22.09,0s6.1-9.232,0-12.753-15.99-3.522-22.09,0S304.568,260.475,310.669,264Z" transform="translate(-306.094 -247.677)" fill="#ebebeb"></path><path id="Path_10173" data-name="Path 10173" d="M308.555,256.48v-1.861h.438a7.588,7.588,0,0,1,3.227-3.233c4.887-2.822,12.811-2.822,17.7,0a7.588,7.588,0,0,1,3.227,3.233h.439v1.877c0,1.849-1.222,3.7-3.666,5.108-4.888,2.822-12.811,2.822-17.7,0C309.769,260.189,308.549,258.334,308.555,256.48Z" transform="translate(-305.449 -247.502)" fill="#e0e0e0"></path><path id="Path_10174" data-name="Path 10174" d="M312.22,260.2c4.887,2.822,12.811,2.822,17.7,0s4.887-7.4,0-10.219-12.811-2.822-17.7,0S307.332,257.382,312.22,260.2Z" transform="translate(-305.449 -247.869)" fill="#f5f5f5"></path><path id="Path_10175" data-name="Path 10175" d="M313.662,258.434a15.069,15.069,0,0,0,13.625,0c3.641-2.1,3.767-5.46.379-7.631-.126-.085-.252-.168-.379-.238a11.648,11.648,0,0,0-2.632-1.078,15.224,15.224,0,0,0-10.993,1.078C309.9,252.735,309.9,256.264,313.662,258.434Z" transform="translate(-304.851 -247.589)" fill="#f0f0f0"></path><path id="Path_10176" data-name="Path 10176" d="M327.285,251.686a15.059,15.059,0,0,0-13.628,0,5.145,5.145,0,0,0-2.771,3.374c-.279-1.6.644-3.263,2.771-4.491a15.059,15.059,0,0,1,13.628,0c2.128,1.228,3.05,2.889,2.771,4.491A5.141,5.141,0,0,0,327.285,251.686Z" transform="translate(-304.851 -247.589)" fill="#e0e0e0"></path><path id="Path_10177" data-name="Path 10177" d="M319.79,251.949l2.8,1.779,2.731-1.961v-1.078c-.126-.085-.252-.168-.379-.239a11.651,11.651,0,0,0-2.632-1.078v.811Z" transform="translate(-302.506 -247.475)" fill="#e0e0e0"></path></g></g></g><g id="Group_1134" data-name="Group 1134" transform="translate(54.142 42.483)"><g id="Group_1129" data-name="Group 1129"><g id="Group_1128" data-name="Group 1128"><path id="Path_10178" data-name="Path 10178" d="M60.443,133.93,217.531,43.235c1.8-1.04,3.424-.962,4.572-.008l5.438,3.761-3.709,4.585V178.252c0,4.64-2.82,10.031-6.3,12.04L62.005,280.085l-.289,4.942L55.987,281.1c-1.141-.862-1.845-2.555-1.845-4.876V145.97C54.142,141.33,56.962,135.94,60.443,133.93Z" transform="translate(-54.142 -42.483)" fill="#893d0a"></path><path id="Path_10179" data-name="Path 10179" d="M60.443,133.93,217.531,43.235c1.8-1.04,3.424-.962,4.572-.008l5.438,3.761-3.709,4.585V178.252c0,4.64-2.82,10.031-6.3,12.04L62.005,280.085l-.289,4.942L55.987,281.1c-1.141-.862-1.845-2.555-1.845-4.876V145.97C54.142,141.33,56.962,135.94,60.443,133.93Z" transform="translate(-54.142 -42.483)" opacity="0.3"></path><path id="Path_10180" data-name="Path 10180" d="M64.683,283.907l157.088-90.695c3.48-2.01,6.3-7.4,6.3-12.041V50.919c0-4.64-2.82-6.774-6.3-4.764L64.683,136.85c-3.48,2.009-6.3,7.4-6.3,12.04V279.142C58.382,283.783,61.2,285.916,64.683,283.907Z" transform="translate(-53.031 -41.72)" fill="#ba68c8"></path><path id="Path_10181" data-name="Path 10181" d="M64.683,283.907l157.088-90.695c3.48-2.01,6.3-7.4,6.3-12.041V50.919c0-4.64-2.82-6.774-6.3-4.764L64.683,136.85c-3.48,2.009-6.3,7.4-6.3,12.04V279.142C58.382,283.783,61.2,285.916,64.683,283.907Z" transform="translate(-53.031 -41.72)" fill="#a65617"></path><path id="Path_10182" data-name="Path 10182" d="M64.683,136.85,221.771,46.155c3.48-2.01,6.3.124,6.3,4.764v6.368L58.382,155.258V148.89C58.382,144.25,61.2,138.859,64.683,136.85Z" transform="translate(-53.031 -41.72)" fill="#893d0a"></path><path id="Path_10183" data-name="Path 10183" d="M224.272,46.66c1.542,0,2.538,1.672,2.538,4.259V181.171c0,4.159-2.6,9.173-5.67,10.949L64.052,282.814a3.822,3.822,0,0,1-1.87.587c-1.542,0-2.538-1.672-2.538-4.259V148.89c0-4.159,2.6-9.173,5.67-10.947L222.4,47.248a3.862,3.862,0,0,1,1.87-.588h0m0-1.262a5.048,5.048,0,0,0-2.5.757L64.683,136.85c-3.48,2.009-6.3,7.4-6.3,12.04V279.142c0,3.455,1.564,5.521,3.8,5.521a5.059,5.059,0,0,0,2.5-.756l157.088-90.695c3.48-2.01,6.3-7.4,6.3-12.041V50.919c0-3.455-1.564-5.52-3.8-5.521Z" transform="translate(-53.031 -41.72)" fill="#fff"></path></g></g><g id="Group_1130" data-name="Group 1130" transform="translate(16.747 35.44)"><path id="Path_10184" data-name="Path 10184" d="M135.422,107.764a1.322,1.322,0,0,0,.666-.179l59.8-34.523a1.337,1.337,0,0,0-1.338-2.316l-59.8,34.523a1.337,1.337,0,0,0,.67,2.495Z" transform="translate(-49.948 -70.567)" fill="#fff"></path><path id="Path_10185" data-name="Path 10185" d="M68.751,144.4a1.322,1.322,0,0,0,.666-.179l44.294-25.573a1.337,1.337,0,0,0-1.338-2.314L68.081,141.9a1.336,1.336,0,0,0,.67,2.494Z" transform="translate(-67.412 -58.626)" fill="#fff"></path><path id="Path_10186" data-name="Path 10186" d="M111.46,116.588a1.336,1.336,0,0,0,.668-.179l17.992-10.387a1.337,1.337,0,0,0-1.338-2.316L110.79,114.093a1.337,1.337,0,0,0,.67,2.495Z" transform="translate(-56.225 -61.933)" fill="#fff"></path><path id="Path_10187" data-name="Path 10187" d="M135.422,174.131a1.333,1.333,0,0,0,.666-.178l59.8-34.524a1.337,1.337,0,0,0-1.338-2.316l-59.8,34.524a1.336,1.336,0,0,0,.67,2.494Z" transform="translate(-49.948 -53.182)" fill="#fff"></path><path id="Path_10188" data-name="Path 10188" d="M68.751,210.767a1.335,1.335,0,0,0,.666-.179l44.294-25.573a1.337,1.337,0,1,0-1.338-2.314L68.081,208.273a1.337,1.337,0,0,0,.67,2.494Z" transform="translate(-67.412 -41.242)" fill="#fff"></path><path id="Path_10189" data-name="Path 10189" d="M111.46,182.955a1.323,1.323,0,0,0,.668-.179l17.992-10.386a1.337,1.337,0,0,0-1.338-2.316L110.79,180.461a1.336,1.336,0,0,0,.67,2.494Z" transform="translate(-56.225 -44.548)" fill="#fff"></path><path id="Path_10190" data-name="Path 10190" d="M135.422,189.735a1.333,1.333,0,0,0,.666-.178l59.8-34.523a1.337,1.337,0,0,0-1.338-2.316l-59.8,34.523a1.336,1.336,0,0,0,.67,2.494Z" transform="translate(-49.948 -49.095)" fill="#fff"></path><path id="Path_10191" data-name="Path 10191" d="M83.69,215.486a1.335,1.335,0,0,0,.666-.179L109.8,200.619a1.337,1.337,0,1,0-1.338-2.316L83.02,212.991a1.337,1.337,0,0,0,.67,2.495Z" transform="translate(-63.499 -37.154)" fill="#fff"></path><path id="Path_10192" data-name="Path 10192" d="M111.46,198.56a1.336,1.336,0,0,0,.668-.179l17.992-10.387a1.337,1.337,0,0,0-1.338-2.316L110.79,196.065a1.337,1.337,0,0,0,.67,2.495Z" transform="translate(-56.225 -40.461)" fill="#fff"></path><path id="Path_10193" data-name="Path 10193" d="M159.052,98.793a1.334,1.334,0,0,0,.668-.178L189.7,81.308a1.337,1.337,0,1,0-1.338-2.314L158.383,96.3a1.336,1.336,0,0,0,.669,2.494Z" transform="translate(-43.758 -68.407)" fill="#fff"></path><path id="Path_10194" data-name="Path 10194" d="M90.617,140.02a1.334,1.334,0,0,0,.668-.178l44.294-25.573a1.337,1.337,0,0,0-1.338-2.316L89.947,137.526a1.336,1.336,0,0,0,.67,2.494Z" transform="translate(-61.685 -59.773)" fill="#fff"></path><path id="Path_10195" data-name="Path 10195" d="M135.091,111.191a1.334,1.334,0,0,0,.668-.178l17.99-10.388a1.336,1.336,0,1,0-1.336-2.314L134.421,108.7a1.336,1.336,0,0,0,.67,2.494Z" transform="translate(-50.035 -63.347)" fill="#fff"></path><path id="Path_10196" data-name="Path 10196" d="M135.422,124.257a1.335,1.335,0,0,0,.666-.179l59.8-34.523a1.337,1.337,0,0,0-1.338-2.316l-59.8,34.523a1.337,1.337,0,0,0,.67,2.495Z" transform="translate(-49.948 -66.246)" fill="#fff"></path><path id="Path_10197" data-name="Path 10197" d="M94.5,142.131a1.335,1.335,0,0,0,.666-.179l11.8-6.812a1.337,1.337,0,0,0-1.338-2.316l-11.8,6.812a1.337,1.337,0,0,0,.67,2.495Z" transform="translate(-60.667 -54.306)" fill="#fff"></path><path id="Path_10198" data-name="Path 10198" d="M154.377,115.807a1.334,1.334,0,0,0,.668-.178l11.8-6.812a1.337,1.337,0,1,0-1.338-2.316l-11.8,6.812a1.336,1.336,0,0,0,.67,2.494Z" transform="translate(-44.983 -61.201)" fill="#fff"></path><path id="Path_10199" data-name="Path 10199" d="M111.46,133.081a1.323,1.323,0,0,0,.668-.179l17.992-10.386a1.337,1.337,0,0,0-1.338-2.316L110.79,130.587a1.336,1.336,0,0,0,.67,2.494Z" transform="translate(-56.225 -57.613)" fill="#fff"></path><path id="Path_10200" data-name="Path 10200" d="M167.618,109.044a1.334,1.334,0,0,0,.668-.178L187.452,97.8a1.337,1.337,0,0,0-1.338-2.316l-19.165,11.065a1.336,1.336,0,0,0,.669,2.494Z" transform="translate(-41.515 -64.086)" fill="#fff"></path><path id="Path_10201" data-name="Path 10201" d="M135.091,127.685a1.336,1.336,0,0,0,.668-.179l17.99-10.387a1.336,1.336,0,1,0-1.336-2.314l-17.992,10.387a1.337,1.337,0,0,0,.67,2.494Z" transform="translate(-50.035 -59.026)" fill="#fff"></path><path id="Path_10202" data-name="Path 10202" d="M135.422,141.351a1.333,1.333,0,0,0,.666-.178l59.8-34.523a1.337,1.337,0,0,0-1.338-2.316l-59.8,34.523a1.336,1.336,0,0,0,.67,2.494Z" transform="translate(-49.948 -61.769)" fill="#fff"></path><path id="Path_10203" data-name="Path 10203" d="M68.751,177.986a1.322,1.322,0,0,0,.666-.179l44.294-25.573a1.337,1.337,0,1,0-1.338-2.314L68.081,175.493a1.336,1.336,0,0,0,.67,2.494Z" transform="translate(-67.412 -49.828)" fill="#fff"></path><path id="Path_10204" data-name="Path 10204" d="M111.46,150.176a1.335,1.335,0,0,0,.668-.179l17.992-10.387a1.337,1.337,0,0,0-1.338-2.316L110.79,147.681a1.337,1.337,0,0,0,.67,2.495Z" transform="translate(-56.225 -53.135)" fill="#fff"></path><path id="Path_10205" data-name="Path 10205" d="M159.052,132.381a1.336,1.336,0,0,0,.668-.179L189.7,114.9a1.337,1.337,0,0,0-1.338-2.316l-29.975,17.306a1.337,1.337,0,0,0,.669,2.495Z" transform="translate(-43.758 -59.608)" fill="#fff"></path><path id="Path_10206" data-name="Path 10206" d="M90.617,173.608a1.323,1.323,0,0,0,.668-.179l44.294-25.572a1.337,1.337,0,0,0-1.338-2.316L89.947,171.114a1.336,1.336,0,0,0,.67,2.494Z" transform="translate(-61.685 -50.975)" fill="#fff"></path><path id="Path_10207" data-name="Path 10207" d="M135.091,144.779a1.335,1.335,0,0,0,.668-.179l17.99-10.387a1.337,1.337,0,0,0-1.336-2.316l-17.992,10.388a1.336,1.336,0,0,0,.67,2.494Z" transform="translate(-50.035 -54.549)" fill="#fff"></path><path id="Path_10208" data-name="Path 10208" d="M135.422,157.844a1.333,1.333,0,0,0,.666-.178l59.8-34.523a1.337,1.337,0,0,0-1.338-2.316l-59.8,34.523a1.336,1.336,0,0,0,.67,2.494Z" transform="translate(-49.948 -57.448)" fill="#fff"></path><path id="Path_10209" data-name="Path 10209" d="M94.5,175.718a1.333,1.333,0,0,0,.666-.178l11.8-6.812a1.337,1.337,0,0,0-1.338-2.316l-11.8,6.812a1.336,1.336,0,0,0,.67,2.494Z" transform="translate(-60.667 -45.508)" fill="#fff"></path><path id="Path_10210" data-name="Path 10210" d="M154.377,149.4a1.323,1.323,0,0,0,.668-.179l11.8-6.812a1.337,1.337,0,1,0-1.338-2.314l-11.8,6.812a1.336,1.336,0,0,0,.67,2.494Z" transform="translate(-44.983 -52.403)" fill="#fff"></path><path id="Path_10211" data-name="Path 10211" d="M111.46,166.668a1.334,1.334,0,0,0,.668-.178L130.119,156.1a1.337,1.337,0,0,0-1.338-2.316L110.79,164.174a1.336,1.336,0,0,0,.67,2.494Z" transform="translate(-56.225 -48.815)" fill="#fff"></path><path id="Path_10212" data-name="Path 10212" d="M167.618,142.633a1.335,1.335,0,0,0,.668-.178l19.166-11.065a1.337,1.337,0,0,0-1.338-2.316l-19.165,11.065a1.336,1.336,0,0,0,.669,2.494Z" transform="translate(-41.515 -55.288)" fill="#fff"></path><path id="Path_10213" data-name="Path 10213" d="M135.091,161.272a1.323,1.323,0,0,0,.668-.179l17.99-10.387a1.337,1.337,0,0,0-1.336-2.316l-17.992,10.388a1.336,1.336,0,0,0,.67,2.494Z" transform="translate(-50.035 -50.228)" fill="#fff"></path><path id="Path_10214" data-name="Path 10214" d="M154.377,165.2a1.334,1.334,0,0,0,.668-.178l11.8-6.812a1.337,1.337,0,1,0-1.338-2.316l-11.8,6.812a1.336,1.336,0,0,0,.67,2.494Z" transform="translate(-44.983 -48.262)" fill="#fff"></path><path id="Path_10215" data-name="Path 10215" d="M167.618,158.441a1.336,1.336,0,0,0,.668-.179L187.452,147.2a1.337,1.337,0,0,0-1.338-2.316l-19.165,11.065a1.337,1.337,0,0,0,.669,2.495Z" transform="translate(-41.515 -51.148)" fill="#fff"></path><path id="Path_10216" data-name="Path 10216" d="M135.091,177.08a1.336,1.336,0,0,0,.668-.179l17.99-10.387a1.337,1.337,0,0,0-1.336-2.316l-17.992,10.388a1.337,1.337,0,0,0,.67,2.494Z" transform="translate(-50.035 -46.087)" fill="#fff"></path></g><g id="Group_1132" data-name="Group 1132" transform="translate(150.177 13.94)"><g id="Group_1131" data-name="Group 1131" transform="translate(0)"><path id="Path_10217" data-name="Path 10217" d="M173.146,83.19v48.388c0,.776.286,1.3.722,1.469l.013.005h0l1.854,1.016-.011-1.649.264-49.748-2.425-1.224A4.227,4.227,0,0,0,173.146,83.19Z" transform="translate(-173.146 -46.217)" fill="#263238"></path><path id="Path_10218" data-name="Path 10218" d="M173.476,88.76l2.425,1.224,58.67-34.392,1.4-.814-1.932-1.088-.056-.033h0a1.107,1.107,0,0,0-1.156.083L174.807,87.17A3.562,3.562,0,0,0,173.476,88.76Z" transform="translate(-173.06 -53.53)" fill="#37474f"></path><path id="Path_10219" data-name="Path 10219" d="M174.814,91.293V139.36a1.585,1.585,0,0,0,.553,1.374l.112.061a1.133,1.133,0,0,0,1.069-.124L234.22,107.44a4.154,4.154,0,0,0,1.736-3.314V56.06a1.615,1.615,0,0,0-.519-1.349.806.806,0,0,0-.175-.1,1.158,1.158,0,0,0-1.042.139L176.548,87.98a3.508,3.508,0,0,0-1.285,1.5A4.225,4.225,0,0,0,174.814,91.293Z" transform="translate(-172.709 -53.265)" fill="#455a64"></path><text id="_" data-name="&lt;/&gt;" transform="translate(17.932 61.055) rotate(-25)" fill="#fafafa" font-size="26" font-family="Montserrat-Bold, Montserrat" font-weight="700"><tspan x="0" y="0">&lt;/&gt;</tspan></text></g><path id="Path_10220" data-name="Path 10220" d="M235.167,54.707a.59.59,0,0,1,.228.044.483.483,0,0,1,.112.062,1.352,1.352,0,0,1,.391,1.1v48.356a3.89,3.89,0,0,1-1.585,3.055l-58.02,33.43a1.079,1.079,0,0,1-.529.165.578.578,0,0,1-.249-.053l-.1-.053a1.323,1.323,0,0,1-.389-1.1V91.356a3.923,3.923,0,0,1,.419-1.678,3.2,3.2,0,0,1,1.165-1.374l58.02-33.431a1.084,1.084,0,0,1,.531-.165m0-.322a1.405,1.405,0,0,0-.693.208l-58.02,33.43a3.521,3.521,0,0,0-1.292,1.513,4.239,4.239,0,0,0-.452,1.82v48.358a1.587,1.587,0,0,0,.557,1.382l.112.062a.9.9,0,0,0,.386.085,1.4,1.4,0,0,0,.689-.21l58.02-33.43a4.182,4.182,0,0,0,1.747-3.334V55.912a1.63,1.63,0,0,0-.521-1.358.822.822,0,0,0-.178-.1.911.911,0,0,0-.355-.069Z" transform="translate(-172.736 -53.306)" fill="#37474f"></path></g><g id="Group_1133" data-name="Group 1133" transform="translate(143.463 12.553)"><path id="Path_10221" data-name="Path 10221" d="M180.543,56.464c0,1.377.967,1.935,2.159,1.247a4.772,4.772,0,0,0,2.159-3.739c0-1.377-.967-1.935-2.159-1.247A4.772,4.772,0,0,0,180.543,56.464Z" transform="translate(-164.495 -52.431)" fill="#fff"></path><path id="Path_10222" data-name="Path 10222" d="M174.185,60.39c0,1.377.965,1.935,2.158,1.247A4.772,4.772,0,0,0,178.5,57.9c0-1.377-.967-1.935-2.159-1.247A4.771,4.771,0,0,0,174.185,60.39Z" transform="translate(-166.16 -51.402)" fill="#fff"></path><path id="Path_10223" data-name="Path 10223" d="M167.826,64.316c0,1.377.967,1.935,2.159,1.246a4.772,4.772,0,0,0,2.158-3.738c0-1.377-.967-1.936-2.158-1.247A4.77,4.77,0,0,0,167.826,64.316Z" transform="translate(-167.826 -50.374)" fill="#fff"></path></g></g></g></svg>